<?xml version="1.0" encoding="UTF-8" standalone="no"?>
<!-- Generator: Adobe Illustrator 28.0.0, SVG Export Plug-In . SVG Version: 6.00 Build 0)  -->

<svg
   version="1.1"
   id="Layer_1"
   x="0px"
   y="0px"
   viewBox="0 0 1791.6 70.489998"
   xml:space="preserve"
   sodipodi:docname="tie.svg"
   width="1791.6"
   height="70.489998"
   inkscape:version="1.4.2 (ebf0e940d0, 2025-05-08)"
   xmlns:inkscape="http://www.inkscape.org/namespaces/inkscape"
   xmlns:sodipodi="http://sodipodi.sourceforge.net/DTD/sodipodi-0.dtd"
   xmlns="http://www.w3.org/2000/svg"
   xmlns:svg="http://www.w3.org/2000/svg"><defs
   id="defs197" /><sodipodi:namedview
   id="namedview197"
   pagecolor="#ffffff"
   bordercolor="#000000"
   borderopacity="0.25"
   inkscape:showpageshadow="2"
   inkscape:pageopacity="0.0"
   inkscape:pagecheckerboard="0"
   inkscape:deskcolor="#d1d1d1"
   inkscape:zoom="0.69583333"
   inkscape:cx="960"
   inkscape:cy="540.35928"
   inkscape:window-width="1920"
   inkscape:window-height="1011"
   inkscape:window-x="0"
   inkscape:window-y="0"
   inkscape:window-maximized="1"
   inkscape:current-layer="Layer_1" />
<style
   type="text/css"
   id="style1">
	.st0{fill:#8EC045;}
</style>

<g
   id="g197"
   transform="translate(-73.17,-426.82)">
	<polygon
   class="st0"
   points="93.78,455.29 116.52,455.29 107.29,444.99 73.17,444.99 "
   id="polygon71" />
	<polygon
   class="st0"
   points="154.24,461.03 143.54,444.99 109.72,444.99 119,455.35 "
   id="polygon72" />
	<polygon
   class="st0"
   points="192.64,473.47 215.21,474.15 192.06,451 145.88,445.23 147.67,447.91 156.72,461.49 "
   id="polygon73" />
	<polygon
   class="st0"
   points="156.72,461.49 147.67,447.91 "
   id="polygon74" />
	<polygon
   class="st0"
   points="327.62,461.03 362.86,455.35 372.15,444.99 353.02,444.99 338.32,444.99 336.97,447.01 "
   id="polygon75" />
	<polygon
   class="st0"
   points="458.7,434.79 464.99,432.88 443.72,432.88 425.1,442.19 423.12,443.18 441.88,443.18 458.63,434.81 "
   id="polygon76" />
	<polygon
   class="st0"
   points="394.15,455.29 394.15,444.99 374.58,444.99 365.35,455.29 "
   id="polygon77" />
	
		<rect
   x="363.04001"
   y="450.14001"
   transform="matrix(0.6673,-0.7448,0.7448,0.6673,-212.1726,425.2896)"
   class="st0"
   width="13.83"
   height="0"
   id="rect77" />
	<polygon
   class="st0"
   points="406.27,450.51 406.27,444.99 406.27,443.18 406.27,437.65 417.1,426.82 401.49,426.82 395.96,432.35 395.96,443.18 395.96,444.99 395.96,455.7 401.49,461.35 417.1,461.35 "
   id="polygon78" />
	<polygon
   class="st0"
   points="408.08,438.4 408.08,443.18 415.45,443.18 419.07,443.18 440.43,432.5 416.9,429.58 "
   id="polygon79" />
	<polygon
   class="st0"
   points="408.08,438.4 416.9,429.58 "
   id="polygon80" />
	<polygon
   class="st0"
   points="358.99,443.18 373.77,443.18 376.2,443.18 394.15,443.18 394.15,432.88 374.45,432.88 "
   id="polygon81" />
	<polygon
   class="st0"
   points="440.43,455.67 419.07,444.99 415.45,444.99 408.08,444.99 408.08,449.77 416.9,458.58 "
   id="polygon82" />
	<polygon
   class="st0"
   points="266.65,474.15 289.22,473.47 325.14,461.49 335.98,445.23 289.8,451 "
   id="polygon83" />
	<path
   class="st0"
   d="m 242.91,472.15 v -0.63 c 0,-1.6 0.76,-3.02 1.93,-3.93 l -7.79,0.03 c 1.15,0.91 1.9,2.32 1.9,3.91 v 0.63 c 0.65,-0.26 1.32,-0.39 1.98,-0.39 0.66,-0.01 1.33,0.12 1.98,0.38 z"
   id="path83" />
	<path
   class="st0"
   d="m 239.5,479.21 c 0,0.92 -0.37,1.76 -0.96,2.38 h 4.79 c -0.59,-0.62 -0.96,-1.46 -0.96,-2.38 v -0.31 h -2.87 z"
   id="path84" />
	<path
   class="st0"
   d="m 194.66,451.04 46.27,46.27 46.27,-46.27 z m 56.64,25.22 c 0,-1.48 -1.21,-2.69 -2.69,-2.69 -1.48,0 -2.69,1.21 -2.69,2.69 v 1.86 c 0,0.53 0.43,0.95 0.95,0.95 0.52,0 0.95,-0.43 0.95,-0.95 h 0.78 v 0 0 h 0.78 v 1.09 c 0,1.92 -1.58,3.48 -3.51,3.48 -0.28,0 -0.54,-0.03 -0.8,-0.09 -0.24,1.03 -0.84,1.95 -1.7,2.59 l -2.44,1.79 -2.44,-1.79 c -0.86,-0.63 -1.46,-1.56 -1.7,-2.59 -0.26,0.06 -0.53,0.09 -0.8,0.09 -1.94,0 -3.51,-1.56 -3.51,-3.48 v -1.09 h 0.78 v 0 0 h 0.78 c 0,0.53 0.43,0.95 0.95,0.95 0.53,0 0.95,-0.43 0.95,-0.95 v -1.86 c 0,-1.48 -1.21,-2.69 -2.69,-2.69 -1.48,0 -2.69,1.21 -2.69,2.69 h -1.57 l -0.01,-4.74 c 0,-2.75 2.24,-4.98 4.98,-4.98 0.26,0 0.52,0.03 0.77,0.07 v -0.91 c 0.03,-1.67 1.25,-2.94 2.57,-4.06 0.78,-0.67 3.07,-2.55 3.16,-2.63 l 0.5,-0.41 0.5,0.41 c 0.1,0.08 2.38,1.97 3.16,2.63 1.32,1.12 2.55,2.39 2.57,4.06 v 0.01 0.89 c 0.22,-0.03 0.45,-0.05 0.68,-0.05 2.75,0 4.98,2.24 4.98,4.98 l -0.01,4.74 z"
   id="path85" />
	<polygon
   class="st0"
   points=""
   id="polygon85" />
	<path
   class="st0"
   d="m 234.99,480.63 c -0.11,0 -0.22,-0.01 -0.32,-0.02 0.35,0.31 0.81,0.5 1.31,0.5 1.07,0 1.95,-0.86 1.95,-1.91 v -0.31 h -0.54 c -0.33,1.01 -1.28,1.74 -2.4,1.74 z"
   id="path86" />
	<path
   class="st0"
   d="m 237.38,473.06 v -1.54 c 0,-1.88 -1.53,-3.41 -3.41,-3.41 -1.88,0 -3.41,1.53 -3.41,3.41 v 1.44 c 0.74,-0.6 1.68,-0.97 2.7,-0.97 1.43,0 2.69,0.71 3.46,1.79 0.19,-0.26 0.41,-0.5 0.66,-0.72 z"
   id="path87" />
	<polygon
   class="st0"
   points=""
   id="polygon87" />
	<path
   class="st0"
   d="m 243.93,479.21 c 0,1.05 0.87,1.91 1.95,1.91 0.5,0 0.96,-0.19 1.31,-0.5 -0.1,0.01 -0.21,0.02 -0.32,0.02 -1.12,0 -2.07,-0.73 -2.4,-1.74 h -0.54 z"
   id="path88" />
	<path
   class="st0"
   d="m 245.14,473.78 c 0.77,-1.08 2.04,-1.79 3.46,-1.79 1.02,0 1.96,0.36 2.7,0.97 v -1.44 c 0,-1.88 -1.53,-3.41 -3.41,-3.41 -1.88,0 -3.41,1.53 -3.41,3.41 v 1.54 c 0.25,0.22 0.47,0.46 0.66,0.72 z"
   id="path89" />
	<path
   class="st0"
   d="m 245.64,467.08 v -1.37 c -0.02,-1.04 -0.98,-2 -2.02,-2.89 -0.55,-0.47 -1.91,-1.59 -2.65,-2.21 -0.74,0.61 -2.09,1.73 -2.65,2.21 -1.04,0.88 -2,1.84 -2.02,2.89 v 1.41 c 0.26,0.14 0.51,0.31 0.74,0.49 l 7.79,-0.03 c 0.26,-0.19 0.53,-0.36 0.81,-0.5 z"
   id="path90" />
	<polygon
   class="st0"
   points=""
   id="polygon90" />
	<path
   class="st0"
   d="m 243.18,474.05 c -1.47,-0.95 -3.04,-0.95 -4.51,0 -0.15,0.1 -0.29,0.21 -0.41,0.34 l 0.35,2.94 h 4.62 l 0.36,-2.94 c -0.11,-0.13 -0.25,-0.25 -0.41,-0.34 z"
   id="path91" />
	<path
   class="st0"
   d="m 238.27,474.38 c -0.47,0.47 -0.75,1.12 -0.75,1.81 v 0.06 1.07 h 1.1 z"
   id="path92" />
	<path
   class="st0"
   d="m 243.6,474.39 -0.36,2.94 h 1.1 v -1.07 -0.06 c 0.01,-0.69 -0.27,-1.34 -0.74,-1.81 z"
   id="path93" />
	<path
   class="st0"
   d="m 238.26,481.86 c 0.08,0.81 0.5,1.57 1.16,2.06 l 1.52,1.11 1.52,-1.11 c 0.66,-0.49 1.08,-1.24 1.16,-2.06 -0.1,-0.08 -0.19,-0.17 -0.28,-0.27 h -4.79 c -0.1,0.09 -0.2,0.18 -0.29,0.27 z"
   id="path94" />
	<path
   class="st0"
   d="m 238.54,481.59 h -0.3 c 0,0.09 0.01,0.18 0.02,0.27 0.09,-0.09 0.19,-0.18 0.28,-0.27 z"
   id="path95" />
	<path
   class="st0"
   d="m 243.61,481.86 c 0.01,-0.09 0.02,-0.18 0.02,-0.27 h -0.3 c 0.09,0.09 0.18,0.18 0.28,0.27 z"
   id="path96" />
	<polygon
   class="st0"
   points="466.46,455.29 457.23,444.99 442.31,444.99 423.12,444.99 424.45,445.66 443.72,455.29 "
   id="polygon96" />
	<polygon
   class="st0"
   points="443.72,455.29 424.45,445.66 "
   id="polygon97" />
	<polygon
   class="st0"
   points="460.26,445.66 468.95,455.35 504.19,461.03 493.49,444.99 459.66,444.99 "
   id="polygon98" />
	<polygon
   class="st0"
   points="460.26,445.66 459.66,444.99 "
   id="polygon99" />
	<polygon
   class="st0"
   points="542.01,451 495.82,445.23 506.67,461.49 542.59,473.47 565.16,474.15 "
   id="polygon100" />
	<polygon
   class="st0"
   points="677.57,461.03 712.81,455.35 722.09,444.99 702.96,444.99 688.26,444.99 687.56,446.05 "
   id="polygon101" />
	<polygon
   class="st0"
   points="808.65,434.79 814.93,432.88 793.67,432.88 786.82,436.3 773.06,443.18 791.83,443.18 808.57,434.81 "
   id="polygon102" />
	<polygon
   class="st0"
   points="744.1,455.29 744.1,444.99 724.52,444.99 715.29,455.29 "
   id="polygon103" />
	
		<rect
   x="712.98999"
   y="450.14001"
   transform="matrix(0.6673,-0.7448,0.7448,0.6673,-95.7529,685.9176)"
   class="st0"
   width="13.83"
   height="0"
   id="rect103" />
	<polygon
   class="st0"
   points="751.44,461.35 767.05,461.35 756.21,450.51 756.21,444.99 756.21,443.18 756.21,437.65 766.19,427.68 767.05,426.82 751.44,426.82 745.91,432.35 745.91,443.18 745.91,444.99 745.91,455.7 "
   id="polygon104" />
	<polygon
   class="st0"
   points="758.02,438.4 758.02,443.18 765.4,443.18 769.02,443.18 790.37,432.5 766.84,429.58 "
   id="polygon105" />
	<polygon
   class="st0"
   points="758.02,438.4 766.84,429.58 "
   id="polygon106" />
	<polygon
   class="st0"
   points="708.94,443.18 723.71,443.18 726.14,443.18 744.1,443.18 744.1,432.88 724.39,432.88 "
   id="polygon107" />
	<polygon
   class="st0"
   points="790.37,455.67 769.02,444.99 765.4,444.99 758.02,444.99 758.02,449.77 766.84,458.58 "
   id="polygon108" />
	<polygon
   class="st0"
   points="616.6,474.15 639.17,473.47 675.09,461.49 685.93,445.23 639.75,451 "
   id="polygon109" />
	<path
   class="st0"
   d="m 544.61,451.04 46.27,46.27 46.27,-46.27 z m 56.64,25.22 c 0,-1.48 -1.21,-2.69 -2.69,-2.69 -1.48,0 -2.69,1.21 -2.69,2.69 v 1.86 c 0,0.53 0.43,0.95 0.95,0.95 0.53,0 0.95,-0.43 0.95,-0.95 h 0.78 v 0 0 h 0.78 v 1.09 c 0,1.92 -1.58,3.48 -3.51,3.48 -0.28,0 -0.54,-0.03 -0.8,-0.09 -0.24,1.03 -0.84,1.95 -1.7,2.59 l -2.44,1.79 -2.44,-1.79 c -0.86,-0.63 -1.46,-1.56 -1.7,-2.59 -0.26,0.06 -0.53,0.09 -0.8,0.09 -1.94,0 -3.51,-1.56 -3.51,-3.48 v -1.09 h 0.78 v 0 0 h 0.78 c 0,0.53 0.43,0.95 0.95,0.95 0.53,0 0.95,-0.43 0.95,-0.95 v -1.86 c 0,-1.48 -1.21,-2.69 -2.69,-2.69 -1.48,0 -2.69,1.21 -2.69,2.69 h -1.57 l -0.01,-4.74 c 0,-2.75 2.24,-4.98 4.98,-4.98 0.26,0 0.52,0.03 0.77,0.07 v -0.91 c 0.03,-1.67 1.25,-2.94 2.57,-4.06 0.78,-0.67 3.07,-2.55 3.16,-2.63 l 0.5,-0.41 0.5,0.41 c 0.1,0.08 2.38,1.97 3.16,2.63 1.32,1.12 2.55,2.39 2.57,4.06 v 0.01 0.89 c 0.22,-0.03 0.45,-0.05 0.68,-0.05 2.75,0 4.98,2.24 4.98,4.98 l -0.01,4.74 z"
   id="path109" />
	<path
   class="st0"
   d="m 589.45,479.21 c 0,0.92 -0.37,1.76 -0.96,2.38 h 4.79 c -0.59,-0.62 -0.96,-1.46 -0.96,-2.38 v -0.31 h -2.87 z"
   id="path110" />
	<path
   class="st0"
   d="m 592.86,472.15 v -0.63 c 0,-1.6 0.76,-3.02 1.93,-3.93 l -7.79,0.03 c 1.15,0.91 1.9,2.32 1.9,3.91 v 0.63 c 0.65,-0.26 1.32,-0.39 1.98,-0.39 0.66,0 1.33,0.12 1.98,0.38 z"
   id="path111" />
	<polygon
   class="st0"
   points=""
   id="polygon111" />
	<path
   class="st0"
   d="m 587.33,473.06 v -1.54 c 0,-1.88 -1.53,-3.41 -3.41,-3.41 -1.88,0 -3.41,1.53 -3.41,3.41 v 1.44 c 0.74,-0.6 1.68,-0.97 2.7,-0.97 1.43,0 2.69,0.71 3.46,1.79 0.19,-0.26 0.41,-0.5 0.66,-0.72 z"
   id="path112" />
	<path
   class="st0"
   d="m 584.94,480.63 c -0.11,0 -0.22,-0.01 -0.32,-0.02 0.35,0.31 0.81,0.5 1.31,0.5 1.07,0 1.95,-0.86 1.95,-1.91 v -0.31 h -0.54 c -0.33,1.01 -1.28,1.74 -2.4,1.74 z"
   id="path113" />
	<path
   class="st0"
   d="m 595.09,473.78 c 0.77,-1.08 2.04,-1.79 3.46,-1.79 1.02,0 1.96,0.36 2.7,0.97 v -1.44 c 0,-1.88 -1.53,-3.41 -3.41,-3.41 -1.88,0 -3.41,1.53 -3.41,3.41 v 1.54 c 0.25,0.22 0.47,0.46 0.66,0.72 z"
   id="path114" />
	<path
   class="st0"
   d="m 593.88,479.21 c 0,1.05 0.87,1.91 1.95,1.91 0.5,0 0.96,-0.19 1.31,-0.5 -0.1,0.01 -0.21,0.02 -0.32,0.02 -1.12,0 -2.07,-0.73 -2.4,-1.74 h -0.54 z"
   id="path115" />
	<polygon
   class="st0"
   points=""
   id="polygon115" />
	<path
   class="st0"
   d="m 595.59,467.08 v -1.37 c -0.02,-1.04 -0.98,-2 -2.02,-2.89 -0.55,-0.47 -1.91,-1.59 -2.65,-2.21 -0.74,0.61 -2.09,1.73 -2.65,2.21 -1.04,0.88 -2,1.84 -2.02,2.89 v 1.41 c 0.26,0.14 0.51,0.31 0.74,0.49 l 7.79,-0.03 c 0.26,-0.19 0.53,-0.36 0.81,-0.5 z"
   id="path116" />
	<polygon
   class="st0"
   points="585.48,467.62 585.47,467.62 "
   id="polygon116" />
	<path
   class="st0"
   d="m 593.13,474.05 c -1.47,-0.95 -3.04,-0.95 -4.51,0 -0.15,0.1 -0.29,0.21 -0.41,0.34 l 0.35,2.94 h 4.62 l 0.36,-2.94 c -0.12,-0.13 -0.26,-0.25 -0.41,-0.34 z"
   id="path117" />
	<path
   class="st0"
   d="m 588.21,474.38 c -0.47,0.47 -0.75,1.12 -0.75,1.81 v 0.06 1.07 h 1.1 z"
   id="path118" />
	<path
   class="st0"
   d="m 593.55,474.39 -0.36,2.94 h 1.1 v -1.07 -0.06 c 0,-0.69 -0.27,-1.34 -0.74,-1.81 z"
   id="path119" />
	<path
   class="st0"
   d="m 588.2,481.86 c 0.08,0.81 0.5,1.57 1.16,2.06 l 1.52,1.11 1.52,-1.11 c 0.66,-0.49 1.08,-1.24 1.16,-2.06 -0.1,-0.08 -0.19,-0.17 -0.28,-0.27 h -4.79 c -0.1,0.09 -0.19,0.18 -0.29,0.27 z"
   id="path120" />
	<path
   class="st0"
   d="m 588.48,481.59 h -0.3 c 0,0.09 0.01,0.18 0.02,0.27 0.1,-0.09 0.19,-0.18 0.28,-0.27 z"
   id="path121" />
	<path
   class="st0"
   d="m 593.55,481.85 c 0.01,-0.09 0.02,-0.18 0.02,-0.27 h -0.3 c 0.09,0.1 0.18,0.19 0.28,0.27 z"
   id="path122" />
	<polygon
   class="st0"
   points="816.41,455.29 807.18,444.99 792.26,444.99 773.06,444.99 786.62,451.77 793.67,455.29 "
   id="polygon122" />
	<polygon
   class="st0"
   points="793.67,455.29 786.62,451.77 "
   id="polygon123" />
	<polygon
   class="st0"
   points="809.61,444.99 818.89,455.35 854.13,461.03 844.15,446.05 843.44,444.99 "
   id="polygon124" />
	<polygon
   class="st0"
   points="891.95,451 845.77,445.23 856.61,461.49 892.53,473.47 915.1,474.15 "
   id="polygon125" />
	<polygon
   class="st0"
   points="1027.52,461.03 1062.75,455.35 1072.04,444.99 1052.91,444.99 1038.21,444.99 1036.09,448.17 "
   id="polygon126" />
	<polygon
   class="st0"
   points="1164.88,432.88 1143.62,432.88 1123.01,443.18 1141.78,443.18 1158.52,434.81 1158.59,434.79 "
   id="polygon127" />
	<polygon
   class="st0"
   points="1094.05,455.29 1094.05,444.99 1074.47,444.99 1065.24,455.29 "
   id="polygon128" />
	
		<rect
   x="1062.9399"
   y="450.14001"
   transform="matrix(0.6673,-0.7448,0.7448,0.6673,20.6652,946.5436)"
   class="st0"
   width="13.83"
   height="0"
   id="rect128" />
	<polygon
   class="st0"
   points="1101.39,461.35 1116.99,461.35 1106.16,450.51 1106.16,444.99 1106.16,443.18 1106.16,437.65 1116.13,427.68 1116.99,426.82 1101.38,426.82 1095.86,432.35 1095.86,443.18 1095.86,444.99 1095.86,455.7 "
   id="polygon129" />
	<polygon
   class="st0"
   points="1107.97,438.4 1107.97,443.18 1115.34,443.18 1118.96,443.18 1140.32,432.5 1116.79,429.58 "
   id="polygon130" />
	<polygon
   class="st0"
   points="1058.88,443.18 1073.66,443.18 1076.09,443.18 1094.05,443.18 1094.05,432.88 1074.34,432.88 "
   id="polygon131" />
	<polygon
   class="st0"
   points="1140.32,455.67 1118.96,444.99 1115.34,444.99 1107.97,444.99 1107.97,449.77 1116.79,458.58 "
   id="polygon132" />
	<polygon
   class="st0"
   points="989.7,451 966.54,474.15 989.12,473.47 1025.03,461.49 1035.88,445.23 "
   id="polygon133" />
	
		<rect
   x="1020.68"
   y="453.35999"
   transform="matrix(0.5547,-0.8321,0.8321,0.5547,81.6447,1059.2737)"
   class="st0"
   width="19.549999"
   height="0"
   id="rect133" />
	<path
   class="st0"
   d="m 942.8,472.15 v -0.63 c 0,-1.6 0.76,-3.02 1.93,-3.93 l -7.79,0.03 c 1.15,0.91 1.9,2.32 1.9,3.91 v 0.63 c 0.65,-0.26 1.32,-0.39 1.98,-0.39 0.67,-0.01 1.33,0.12 1.98,0.38 z"
   id="path133" />
	<path
   class="st0"
   d="m 894.56,451.04 46.27,46.27 46.27,-46.27 z m 56.63,25.22 c 0,-1.48 -1.21,-2.69 -2.69,-2.69 -1.48,0 -2.69,1.21 -2.69,2.69 v 1.86 c 0,0.53 0.43,0.95 0.95,0.95 0.52,0 0.95,-0.43 0.95,-0.95 h 0.78 v 0 0 h 0.78 v 1.09 c 0,1.92 -1.58,3.48 -3.51,3.48 -0.28,0 -0.54,-0.03 -0.8,-0.09 -0.24,1.03 -0.84,1.95 -1.7,2.59 l -2.44,1.79 -2.44,-1.79 c -0.86,-0.63 -1.46,-1.56 -1.7,-2.59 -0.26,0.06 -0.53,0.09 -0.8,0.09 -1.94,0 -3.51,-1.56 -3.51,-3.48 v -1.09 h 0.78 v 0 0 h 0.78 c 0,0.53 0.43,0.95 0.95,0.95 0.52,0 0.95,-0.43 0.95,-0.95 v -1.86 c 0,-1.48 -1.21,-2.69 -2.69,-2.69 -1.48,0 -2.69,1.21 -2.69,2.69 h -1.57 l -0.01,-4.74 c 0,-2.75 2.24,-4.98 4.98,-4.98 0.26,0 0.52,0.03 0.77,0.07 v -0.91 c 0.03,-1.67 1.25,-2.94 2.57,-4.06 0.78,-0.67 3.07,-2.55 3.16,-2.63 l 0.5,-0.41 0.5,0.41 c 0.1,0.08 2.38,1.97 3.16,2.63 1.32,1.12 2.55,2.39 2.57,4.06 v 0.01 0.89 c 0.22,-0.03 0.45,-0.05 0.68,-0.05 2.75,0 4.98,2.24 4.98,4.98 l -0.01,4.74 z"
   id="path134" />
	<path
   class="st0"
   d="m 939.39,479.21 c 0,0.92 -0.37,1.76 -0.96,2.38 h 4.79 c -0.59,-0.62 -0.96,-1.46 -0.96,-2.38 v -0.31 h -2.87 z"
   id="path135" />
	<path
   class="st0"
   d="m 937.28,473.06 v -1.54 c 0,-1.88 -1.53,-3.41 -3.41,-3.41 -1.88,0 -3.41,1.53 -3.41,3.41 v 1.44 c 0.74,-0.6 1.68,-0.97 2.7,-0.97 1.43,0 2.69,0.71 3.46,1.79 0.18,-0.26 0.4,-0.5 0.66,-0.72 z"
   id="path136" />
	<path
   class="st0"
   d="m 934.89,480.63 c -0.11,0 -0.22,-0.01 -0.32,-0.02 0.35,0.31 0.81,0.5 1.31,0.5 1.07,0 1.95,-0.86 1.95,-1.91 v -0.31 h -0.54 c -0.34,1.01 -1.29,1.74 -2.4,1.74 z"
   id="path137" />
	<polygon
   class="st0"
   points=""
   id="polygon137" />
	<path
   class="st0"
   d="m 943.82,479.21 c 0,1.05 0.87,1.91 1.95,1.91 0.5,0 0.96,-0.19 1.31,-0.5 -0.1,0.01 -0.21,0.02 -0.32,0.02 -1.12,0 -2.07,-0.73 -2.4,-1.74 h -0.54 z"
   id="path138" />
	<polygon
   class="st0"
   points=""
   id="polygon138" />
	<path
   class="st0"
   d="m 945.04,473.78 c 0.77,-1.08 2.04,-1.79 3.46,-1.79 1.02,0 1.96,0.36 2.7,0.97 v -1.44 c 0,-1.88 -1.53,-3.41 -3.41,-3.41 -1.88,0 -3.41,1.53 -3.41,3.41 v 1.54 c 0.24,0.22 0.47,0.46 0.66,0.72 z"
   id="path139" />
	<path
   class="st0"
   d="m 945.54,467.08 v -1.37 c -0.02,-1.04 -0.98,-2 -2.02,-2.89 -0.55,-0.47 -1.91,-1.59 -2.65,-2.21 -0.74,0.61 -2.09,1.73 -2.65,2.21 -1.04,0.88 -2,1.84 -2.02,2.89 v 1.41 c 0.26,0.14 0.51,0.31 0.74,0.49 l 7.79,-0.03 c 0.25,-0.19 0.52,-0.36 0.81,-0.5 z"
   id="path140" />
	<polygon
   class="st0"
   points=""
   id="polygon140" />
	<path
   class="st0"
   d="m 943.08,474.05 c -1.47,-0.95 -3.04,-0.95 -4.51,0 -0.15,0.1 -0.29,0.21 -0.41,0.34 l 0.35,2.94 h 4.62 l 0.36,-2.94 c -0.12,-0.13 -0.26,-0.25 -0.41,-0.34 z"
   id="path141" />
	<path
   class="st0"
   d="m 938.16,474.38 c -0.47,0.47 -0.75,1.12 -0.75,1.81 v 0.06 1.07 h 1.1 z"
   id="path142" />
	<path
   class="st0"
   d="m 943.49,474.39 -0.36,2.94 h 1.1 v -1.07 -0.06 c 0.01,-0.69 -0.26,-1.34 -0.74,-1.81 z"
   id="path143" />
	<path
   class="st0"
   d="m 938.15,481.86 c 0.08,0.81 0.5,1.57 1.16,2.06 l 1.52,1.11 1.52,-1.11 c 0.66,-0.49 1.08,-1.24 1.16,-2.06 -0.1,-0.08 -0.19,-0.17 -0.28,-0.27 h -4.79 c -0.1,0.09 -0.19,0.18 -0.29,0.27 z"
   id="path144" />
	<path
   class="st0"
   d="m 938.43,481.59 h -0.3 c 0,0.09 0.01,0.18 0.02,0.27 0.1,-0.09 0.19,-0.18 0.28,-0.27 z"
   id="path145" />
	<path
   class="st0"
   d="m 943.5,481.86 c 0.01,-0.09 0.02,-0.18 0.02,-0.27 h -0.3 c 0.09,0.09 0.18,0.18 0.28,0.27 z"
   id="path146" />
	<polygon
   class="st0"
   points="1142.2,444.99 1123.01,444.99 1143.62,455.29 1166.35,455.29 1157.12,444.99 "
   id="polygon146" />
	
		<rect
   x="1133.3101"
   y="438.62"
   transform="matrix(0.4472,-0.8944,0.8944,0.4472,223.8641,1262.499)"
   class="st0"
   width="0"
   height="23.040001"
   id="rect146" />
	<polygon
   class="st0"
   points="1160.15,445.66 1168.84,455.35 1204.08,461.03 1193.38,444.99 1159.55,444.99 "
   id="polygon147" />
	<polygon
   class="st0"
   points="1160.15,445.66 1159.55,444.99 "
   id="polygon148" />
	<polygon
   class="st0"
   points="1241.9,451 1195.72,445.23 1206.56,461.49 1242.48,473.47 1265.05,474.15 "
   id="polygon149" />
	
		<rect
   x="1201.14"
   y="443.57999"
   transform="matrix(0.8321,-0.5547,0.5547,0.8321,-49.7486,742.4103)"
   class="st0"
   width="0"
   height="19.549999"
   id="rect149" />
	<polygon
   class="st0"
   points="1377.46,461.03 1412.7,455.35 1421.99,444.99 1402.85,444.99 1388.16,444.99 1383.78,451.56 "
   id="polygon150" />
	<polygon
   class="st0"
   points="1508.54,434.79 1514.82,432.88 1493.56,432.88 1483.77,437.77 1472.96,443.18 1491.72,443.18 1508.47,434.81 "
   id="polygon151" />
	<polygon
   class="st0"
   points="1443.99,455.29 1443.99,444.99 1424.42,444.99 1415.19,455.29 "
   id="polygon152" />
	
		<rect
   x="1412.88"
   y="450.14001"
   transform="matrix(0.6673,-0.7448,0.7448,0.6673,137.0845,1207.1733)"
   class="st0"
   width="13.83"
   height="0"
   id="rect152" />
	<polygon
   class="st0"
   points="1451.33,461.35 1466.94,461.35 1456.11,450.51 1456.11,444.99 1456.11,443.18 1456.11,437.65 1466.08,427.68 1466.94,426.82 1451.33,426.82 1445.8,432.35 1445.8,443.18 1445.8,444.99 1445.8,455.7 "
   id="polygon153" />
	<polygon
   class="st0"
   points="1457.91,438.4 1457.91,443.18 1465.29,443.18 1468.91,443.18 1490.27,432.5 1466.73,429.58 "
   id="polygon154" />
	<polygon
   class="st0"
   points="1408.83,443.18 1423.61,443.18 1426.04,443.18 1443.99,443.18 1443.99,432.88 1424.29,432.88 "
   id="polygon155" />
	<polygon
   class="st0"
   points="1490.27,455.67 1468.91,444.99 1465.29,444.99 1457.91,444.99 1457.91,449.77 1466.73,458.58 "
   id="polygon156" />
	<polygon
   class="st0"
   points="1374.98,461.49 1378.08,456.84 1385.82,445.23 1339.64,451 1316.49,474.15 1339.06,473.47 "
   id="polygon157" />
	<polygon
   class="st0"
   points="1378.08,456.84 1374.98,461.49 "
   id="polygon158" />
	<path
   class="st0"
   d="m 1244.5,451.04 46.27,46.27 46.27,-46.27 z m 58.21,25.22 v 0 h -1.57 c 0,-1.48 -1.21,-2.69 -2.69,-2.69 -1.48,0 -2.69,1.21 -2.69,2.69 v 1.86 c 0,0.53 0.43,0.95 0.95,0.95 0.53,0 0.95,-0.43 0.95,-0.95 h 0.78 v 0 0 h 0.78 v 1.09 c 0,1.92 -1.58,3.48 -3.51,3.48 -0.28,0 -0.54,-0.03 -0.8,-0.09 -0.24,1.03 -0.84,1.95 -1.7,2.59 l -2.44,1.79 -2.44,-1.79 c -0.86,-0.63 -1.46,-1.56 -1.7,-2.59 -0.26,0.06 -0.53,0.09 -0.8,0.09 -1.94,0 -3.51,-1.56 -3.51,-3.48 v -1.09 h 0.78 v 0 0 h 0.78 c 0,0.53 0.43,0.95 0.95,0.95 0.53,0 0.95,-0.43 0.95,-0.95 v -1.86 c 0,-1.48 -1.21,-2.69 -2.69,-2.69 -1.48,0 -2.69,1.21 -2.69,2.69 h -1.57 v 0 l -0.01,-4.73 c 0,-2.75 2.24,-4.98 4.98,-4.98 0.26,0 0.52,0.03 0.77,0.07 v -0.91 c 0.03,-1.67 1.25,-2.94 2.57,-4.06 0.78,-0.67 3.07,-2.55 3.16,-2.63 l 0.5,-0.41 0.5,0.41 c 0.1,0.08 2.38,1.97 3.16,2.63 1.32,1.12 2.55,2.39 2.57,4.06 v 0.01 0.89 c 0.22,-0.03 0.45,-0.05 0.68,-0.05 2.75,0 4.98,2.24 4.98,4.98 z"
   id="path158" />
	<path
   class="st0"
   d="m 1289.34,479.21 c 0,0.92 -0.37,1.76 -0.96,2.38 h 4.79 c -0.59,-0.62 -0.96,-1.46 -0.96,-2.38 v -0.31 h -2.86 v 0.31 z"
   id="path159" />
	<path
   class="st0"
   d="m 1292.75,472.15 v -0.63 c 0,-1.6 0.76,-3.02 1.93,-3.93 l -7.79,0.03 c 1.15,0.91 1.9,2.32 1.9,3.91 v 0.63 c 0.65,-0.26 1.32,-0.39 1.98,-0.39 0.66,0 1.33,0.12 1.98,0.38 z"
   id="path160" />
	<path
   class="st0"
   d="m 1284.83,480.63 c -0.11,0 -0.22,-0.01 -0.32,-0.02 0.35,0.31 0.81,0.5 1.31,0.5 1.07,0 1.95,-0.86 1.95,-1.91 v -0.31 h -0.54 c -0.33,1.01 -1.28,1.74 -2.4,1.74 z"
   id="path161" />
	<path
   class="st0"
   d="m 1287.22,473.06 v -1.54 c 0,-1.88 -1.53,-3.41 -3.41,-3.41 -1.88,0 -3.41,1.53 -3.41,3.41 v 1.44 c 0.74,-0.6 1.68,-0.97 2.7,-0.97 1.43,0 2.69,0.71 3.46,1.79 0.19,-0.26 0.41,-0.5 0.66,-0.72 z"
   id="path162" />
	<polygon
   class="st0"
   points=""
   id="polygon162" />
	<path
   class="st0"
   d="m 1294.98,473.78 c 0.77,-1.08 2.04,-1.79 3.46,-1.79 1.02,0 1.96,0.36 2.7,0.97 v -1.44 c 0,-1.88 -1.53,-3.41 -3.41,-3.41 -1.88,0 -3.41,1.53 -3.41,3.41 v 1.54 c 0.25,0.22 0.47,0.46 0.66,0.72 z"
   id="path163" />
	<polygon
   class="st0"
   points=""
   id="polygon163" />
	<path
   class="st0"
   d="m 1293.77,479.21 c 0,1.05 0.87,1.91 1.95,1.91 0.5,0 0.96,-0.19 1.31,-0.5 -0.1,0.01 -0.21,0.02 -0.32,0.02 -1.12,0 -2.07,-0.73 -2.4,-1.74 h -0.54 z"
   id="path164" />
	<path
   class="st0"
   d="m 1295.48,467.08 v -1.37 c -0.02,-1.04 -0.98,-2 -2.02,-2.89 -0.55,-0.47 -1.91,-1.59 -2.65,-2.21 -0.74,0.61 -2.09,1.73 -2.65,2.21 -1.04,0.88 -2,1.84 -2.02,2.89 v 1.41 c 0.26,0.14 0.51,0.31 0.74,0.49 l 7.79,-0.03 c 0.26,-0.19 0.53,-0.36 0.81,-0.5 z"
   id="path165" />
	<polygon
   class="st0"
   points="1285.37,467.62 1285.36,467.62 "
   id="polygon165" />
	<path
   class="st0"
   d="m 1293.02,474.05 c -1.47,-0.95 -3.04,-0.95 -4.51,0 -0.15,0.1 -0.29,0.21 -0.41,0.34 l 0.35,2.94 h 4.62 l 0.36,-2.94 c -0.12,-0.13 -0.25,-0.25 -0.41,-0.34 z"
   id="path166" />
	<path
   class="st0"
   d="m 1288.1,474.38 c -0.47,0.47 -0.75,1.12 -0.75,1.81 v 0.06 1.07 h 1.1 z"
   id="path167" />
	<path
   class="st0"
   d="m 1293.44,474.39 -0.36,2.94 h 1.1 v -1.07 -0.06 c 0.01,-0.69 -0.27,-1.34 -0.74,-1.81 z"
   id="path168" />
	<path
   class="st0"
   d="m 1288.09,481.86 c 0.08,0.81 0.5,1.57 1.16,2.06 l 1.52,1.11 1.52,-1.11 c 0.66,-0.49 1.08,-1.24 1.16,-2.06 -0.1,-0.08 -0.19,-0.17 -0.28,-0.27 h -4.79 c -0.09,0.09 -0.19,0.18 -0.29,0.27 z"
   id="path169" />
	<path
   class="st0"
   d="m 1288.38,481.59 h -0.3 c 0,0.09 0.01,0.18 0.02,0.27 0.09,-0.09 0.19,-0.18 0.28,-0.27 z"
   id="path170" />
	<path
   class="st0"
   d="m 1293.45,481.86 c 0.01,-0.09 0.02,-0.18 0.02,-0.27 h -0.3 c 0.08,0.09 0.18,0.18 0.28,0.27 z"
   id="path171" />
	<polygon
   class="st0"
   points="1516.3,455.29 1507.07,444.99 1492.15,444.99 1472.96,444.99 1483.8,450.41 1493.56,455.29 "
   id="polygon171" />
	<polygon
   class="st0"
   points="1493.56,455.29 1483.8,450.41 "
   id="polygon172" />
	<polygon
   class="st0"
   points="1510.1,445.66 1518.79,455.35 1554.02,461.03 1543.33,444.99 1509.5,444.99 "
   id="polygon173" />
	<polygon
   class="st0"
   points="1510.1,445.66 1509.5,444.99 "
   id="polygon174" />
	<polygon
   class="st0"
   points="1591.84,451 1545.66,445.23 1556.51,461.49 1592.43,473.47 1615,474.15 "
   id="polygon175" />
	
		<rect
   x="1551.08"
   y="443.57999"
   transform="matrix(0.8321,-0.5547,0.5547,0.8321,9.0243,936.5248)"
   class="st0"
   width="0"
   height="19.549999"
   id="rect175" />
	<polygon
   class="st0"
   points="1727.41,461.03 1762.64,455.35 1771.93,444.99 1752.8,444.99 1738.1,444.99 1733.72,451.56 "
   id="polygon176" />
	<polygon
   class="st0"
   points="1843.51,432.88 1822.9,443.18 1841.67,443.18 1858.41,434.81 1858.48,434.79 1864.77,432.88 "
   id="polygon177" />
	<polygon
   class="st0"
   points="1793.94,455.29 1793.94,444.99 1774.36,444.99 1765.13,455.29 "
   id="polygon178" />
	
		<rect
   x="1762.83"
   y="450.14001"
   transform="matrix(0.6673,-0.7448,0.7448,0.6673,253.5036,1467.8022)"
   class="st0"
   width="13.83"
   height="0"
   id="rect178" />
	<polygon
   class="st0"
   points="1806.05,450.51 1806.05,444.99 1806.05,443.18 1806.05,437.65 1816.89,426.82 1801.27,426.82 1795.75,432.35 1795.75,443.18 1795.75,444.99 1795.75,455.7 1801.28,461.35 1816.89,461.35 "
   id="polygon179" />
	<polygon
   class="st0"
   points="1818.86,443.18 1840.21,432.5 1816.68,429.58 1807.86,438.4 1807.86,443.18 "
   id="polygon180" />
	<polygon
   class="st0"
   points="1807.86,438.4 1816.68,429.58 "
   id="polygon181" />
	<polygon
   class="st0"
   points="1758.78,443.18 1773.55,443.18 1775.98,443.18 1793.94,443.18 1793.94,432.88 1774.23,432.88 "
   id="polygon182" />
	<polygon
   class="st0"
   points="1818.86,444.99 1815.24,444.99 1807.86,444.99 1807.86,449.77 1816.68,458.58 1840.21,455.67 "
   id="polygon183" />
	<polygon
   class="st0"
   points="1689.59,451 1666.44,474.15 1689.01,473.47 1724.93,461.49 1735.77,445.23 "
   id="polygon184" />
	
		<rect
   x="1720.5699"
   y="453.35999"
   transform="matrix(0.5547,-0.8321,0.8321,0.5547,393.3087,1641.6211)"
   class="st0"
   width="19.549999"
   height="0"
   id="rect184" />
	<path
   class="st0"
   d="m 1642.7,472.15 v -0.63 c 0,-1.6 0.76,-3.02 1.93,-3.93 l -7.79,0.03 c 1.15,0.91 1.9,2.32 1.9,3.91 v 0.63 c 0.65,-0.26 1.32,-0.39 1.98,-0.39 0.66,0 1.33,0.12 1.98,0.38 z"
   id="path184" />
	<path
   class="st0"
   d="m 1639.28,479.21 c 0,0.92 -0.37,1.76 -0.96,2.38 h 4.79 c -0.59,-0.62 -0.96,-1.46 -0.96,-2.38 v -0.31 h -2.87 z"
   id="path185" />
	<path
   class="st0"
   d="m 1594.45,451.04 46.27,46.27 46.27,-46.27 z m 58.2,25.22 v 0 h -1.57 c 0,-1.48 -1.21,-2.69 -2.69,-2.69 -1.48,0 -2.69,1.21 -2.69,2.69 v 1.86 c 0,0.53 0.43,0.95 0.95,0.95 0.52,0 0.95,-0.43 0.95,-0.95 h 0.78 v 0 0 h 0.78 v 1.09 c 0,1.92 -1.58,3.48 -3.51,3.48 -0.28,0 -0.54,-0.03 -0.8,-0.09 -0.24,1.03 -0.84,1.95 -1.7,2.59 l -2.44,1.79 -2.44,-1.79 c -0.86,-0.63 -1.46,-1.56 -1.7,-2.59 -0.26,0.06 -0.53,0.09 -0.8,0.09 -1.94,0 -3.51,-1.56 -3.51,-3.48 v -1.09 h 0.78 v 0 0 h 0.78 c 0,0.53 0.43,0.95 0.95,0.95 0.52,0 0.95,-0.43 0.95,-0.95 v -1.86 c 0,-1.48 -1.21,-2.69 -2.69,-2.69 -1.48,0 -2.69,1.21 -2.69,2.69 h -1.57 v 0 l -0.01,-4.73 c 0,-2.75 2.24,-4.98 4.98,-4.98 0.26,0 0.52,0.03 0.77,0.07 v -0.91 c 0.03,-1.67 1.25,-2.94 2.57,-4.06 0.78,-0.67 3.07,-2.55 3.16,-2.63 l 0.5,-0.41 0.5,0.41 c 0.1,0.08 2.38,1.97 3.16,2.63 1.32,1.12 2.55,2.39 2.57,4.06 v 0.01 0.89 c 0.22,-0.03 0.45,-0.05 0.68,-0.05 2.75,0 4.98,2.24 4.98,4.98 z"
   id="path186" />
	<path
   class="st0"
   d="m 1637.17,473.06 v -1.54 c 0,-1.88 -1.53,-3.41 -3.41,-3.41 -1.88,0 -3.41,1.53 -3.41,3.41 v 1.44 c 0.74,-0.6 1.68,-0.97 2.7,-0.97 1.43,0 2.69,0.71 3.46,1.79 0.18,-0.26 0.41,-0.5 0.66,-0.72 z"
   id="path187" />
	<path
   class="st0"
   d="m 1634.78,480.63 c -0.11,0 -0.22,-0.01 -0.32,-0.02 0.35,0.31 0.81,0.5 1.31,0.5 1.07,0 1.95,-0.86 1.95,-1.91 v -0.31 h -0.54 c -0.34,1.01 -1.28,1.74 -2.4,1.74 z"
   id="path188" />
	<polygon
   class="st0"
   points=""
   id="polygon188" />
	<polygon
   class="st0"
   points=""
   id="polygon189" />
	<path
   class="st0"
   d="m 1644.93,473.78 c 0.77,-1.08 2.04,-1.79 3.46,-1.79 1.02,0 1.96,0.36 2.7,0.97 v -1.44 c 0,-1.88 -1.53,-3.41 -3.41,-3.41 -1.88,0 -3.41,1.53 -3.41,3.41 v 1.54 c 0.25,0.22 0.47,0.46 0.66,0.72 z"
   id="path189" />
	<path
   class="st0"
   d="m 1643.72,479.21 c 0,1.05 0.87,1.91 1.95,1.91 0.5,0 0.96,-0.19 1.31,-0.5 -0.1,0.01 -0.21,0.02 -0.32,0.02 -1.12,0 -2.07,-0.73 -2.4,-1.74 h -0.54 z"
   id="path190" />
	<path
   class="st0"
   d="m 1645.43,467.08 v -1.37 c -0.02,-1.04 -0.98,-2 -2.02,-2.89 -0.55,-0.47 -1.91,-1.59 -2.65,-2.21 -0.74,0.61 -2.09,1.73 -2.65,2.21 -1.04,0.88 -2,1.84 -2.02,2.89 v 1.41 c 0.26,0.14 0.51,0.31 0.74,0.49 l 7.79,-0.03 c 0.26,-0.19 0.53,-0.36 0.81,-0.5 z"
   id="path191" />
	<polygon
   class="st0"
   points="1635.32,467.62 1635.31,467.62 "
   id="polygon191" />
	<path
   class="st0"
   d="m 1642.97,474.05 c -1.47,-0.95 -3.04,-0.95 -4.51,0 -0.15,0.1 -0.29,0.21 -0.41,0.34 l 0.35,2.94 h 4.62 l 0.36,-2.94 c -0.12,-0.13 -0.26,-0.25 -0.41,-0.34 z"
   id="path192" />
	<path
   class="st0"
   d="m 1638.05,474.38 c -0.47,0.47 -0.75,1.12 -0.75,1.81 v 0.06 1.07 h 1.1 z"
   id="path193" />
	<path
   class="st0"
   d="m 1643.39,474.39 -0.36,2.94 h 1.1 v -1.07 -0.06 c 0,-0.69 -0.27,-1.34 -0.74,-1.81 z"
   id="path194" />
	<path
   class="st0"
   d="m 1638.04,481.86 c 0.08,0.81 0.5,1.57 1.16,2.06 l 1.52,1.11 1.52,-1.11 c 0.66,-0.49 1.08,-1.24 1.16,-2.06 -0.1,-0.08 -0.19,-0.17 -0.28,-0.27 h -4.79 c -0.1,0.09 -0.19,0.18 -0.29,0.27 z"
   id="path195" />
	<path
   class="st0"
   d="m 1638.32,481.59 h -0.3 c 0,0.09 0.01,0.18 0.02,0.27 0.1,-0.09 0.19,-0.18 0.28,-0.27 z"
   id="path196" />
	<path
   class="st0"
   d="m 1643.39,481.86 c 0.01,-0.09 0.02,-0.18 0.02,-0.27 h -0.3 c 0.09,0.09 0.18,0.18 0.28,0.27 z"
   id="path197" />
</g>
</svg>
