<?xml version="1.0" encoding="UTF-8" standalone="no"?>
<svg
   width="24"
   height="24"
   viewBox="0 0 24 24"
   fill="none"
   stroke="currentColor"
   stroke-width="2"
   stroke-linecap="round"
   stroke-linejoin="round"
   class="icon icon-tabler icons-tabler-outline icon-tabler-camera"
   version="1.1"
   id="svg3"
   sodipodi:docname="photography.svg"
   inkscape:version="1.4.2 (ebf0e940d0, 2025-05-08)"
   xmlns:inkscape="http://www.inkscape.org/namespaces/inkscape"
   xmlns:sodipodi="http://sodipodi.sourceforge.net/DTD/sodipodi-0.dtd"
   xmlns="http://www.w3.org/2000/svg"
   xmlns:svg="http://www.w3.org/2000/svg">
  <defs
     id="defs3" />
  <sodipodi:namedview
     id="namedview3"
     pagecolor="#ffffff"
     bordercolor="#000000"
     borderopacity="0.25"
     inkscape:showpageshadow="2"
     inkscape:pageopacity="0.0"
     inkscape:pagecheckerboard="0"
     inkscape:deskcolor="#d1d1d1"
     inkscape:zoom="34.666667"
     inkscape:cx="12"
     inkscape:cy="12"
     inkscape:window-width="1920"
     inkscape:window-height="1043"
     inkscape:window-x="0"
     inkscape:window-y="0"
     inkscape:window-maximized="1"
     inkscape:current-layer="svg3" />
  <path
     stroke="none"
     d="M0 0h24v24H0z"
     fill="none"
     id="path1" />
  <g
     id="g1"
     transform="translate(-2,-3)">
    <path
       d="M 5,7 H 6 A 2,2 0 0 0 8,5 1,1 0 0 1 9,4 h 6 a 1,1 0 0 1 1,1 2,2 0 0 0 2,2 h 1 a 2,2 0 0 1 2,2 v 9 a 2,2 0 0 1 -2,2 H 5 A 2,2 0 0 1 3,18 V 9 A 2,2 0 0 1 5,7"
       id="path2"
       style="stroke:#0078b6;stroke-opacity:1" />
    <path
       d="m 9,13 a 3,3 0 1 0 6,0 3,3 0 0 0 -6,0"
       id="path3"
       style="stroke:#0078b6;stroke-opacity:1" />
  </g>
</svg>
