<?xml version="1.0" encoding="UTF-8" standalone="no"?>
<!-- Generator: Adobe Illustrator 28.0.0, SVG Export Plug-In . SVG Version: 6.00 Build 0)  -->

<svg
   version="1.1"
   id="Layer_1"
   x="0px"
   y="0px"
   viewBox="0 0 586.88 696.23999"
   xml:space="preserve"
   sodipodi:docname="mcssz.svg"
   width="586.88"
   height="696.23999"
   inkscape:version="1.4.2 (ebf0e940d0, 2025-05-08)"
   xmlns:inkscape="http://www.inkscape.org/namespaces/inkscape"
   xmlns:sodipodi="http://sodipodi.sourceforge.net/DTD/sodipodi-0.dtd"
   xmlns="http://www.w3.org/2000/svg"
   xmlns:svg="http://www.w3.org/2000/svg"><defs
   id="defs1" /><sodipodi:namedview
   id="namedview1"
   pagecolor="#ffffff"
   bordercolor="#000000"
   borderopacity="0.25"
   inkscape:showpageshadow="2"
   inkscape:pageopacity="0.0"
   inkscape:pagecheckerboard="0"
   inkscape:deskcolor="#d1d1d1"
   inkscape:zoom="0.34791667"
   inkscape:cx="528.86228"
   inkscape:cy="405.26946"
   inkscape:window-width="1920"
   inkscape:window-height="1011"
   inkscape:window-x="0"
   inkscape:window-y="0"
   inkscape:window-maximized="1"
   inkscape:current-layer="Layer_1" />
<style
   type="text/css"
   id="style1">
	.st0{fill:#8DC63F;}
</style>
<path
   class="st0"
   d="m 467.94,197.57 c -7.88,0 -15.59,0.78 -23.05,2.25 v -29.1 -0.21 C 444.27,131.03 414.55,100.39 382.54,73.14 362.94,56.46 303.89,7.69 303.29,7.2 L 294.58,0 285.87,7.2 c -0.59,0.49 -59.64,49.27 -79.25,65.94 -32.02,27.24 -61.73,57.89 -62.35,97.37 v 29.79 c -8.17,-1.78 -16.65,-2.73 -25.34,-2.73 C 53.35,197.57 0,250.92 0,316.52 L 0.24,435.23 27.6,435.2 c 0,-40.5 32.95,-73.45 73.45,-73.45 40.5,0 73.45,32.95 73.45,73.45 v 46.53 c 0,16.48 -13.41,29.88 -29.88,29.88 -16.47,0 -29.88,-13.41 -29.88,-29.88 H 87.38 v 27.42 c 0,44.75 36.83,81.15 82.09,81.15 8.59,0 16.88,-1.32 24.67,-3.75 4.59,26.75 19.42,51.13 41.61,67.39 l 57.68,42.3 57.69,-42.29 c 22.19,-16.26 37.02,-40.64 41.61,-67.39 7.79,2.43 16.08,3.75 24.67,3.75 45.27,0 82.09,-36.4 82.09,-81.15 v -27.42 h -27.36 c 0,16.48 -13.41,29.88 -29.88,29.88 -16.47,0 -29.88,-13.41 -29.88,-29.88 v -46.53 c 0,-40.5 32.95,-73.45 73.45,-73.45 40.5,0 73.45,32.95 73.45,73.45 l 27.36,0.03 0.25,-118.73 C 586.87,250.93 533.52,197.57 467.94,197.57 Z M 171.62,170.84 c 0.29,-16.88 6.93,-37.89 52.72,-76.849997 C 239.25,81.31 277.33,49.77 294.57,35.5 311.81,49.76 349.89,81.3 364.8,93.990003 391.89,117.04 417.02,142.29 417.52,170.84 v 37.97 c -40.44,19.01 -68.51,60.13 -68.51,107.7 v 24.78 c -7.96,-3.71 -16.09,-6.62 -24.28,-8.73 l -15.95,-36.68 23.66,-10.29 -10.91,-25.09 -23.66,10.29 -9.89,-22.76 -25.09,10.91 9.89,22.76 -23.66,10.29 10.91,25.09 23.66,-10.29 9.44,21.71 c -18.52,0.05 -37.31,4.43 -55.29,12.8 v -24.78 c 0,-46.66 -27.01,-87.12 -66.22,-106.59 z M 340.41,468.06 V 441.22 H 385 v 26.84 z M 233.69,374.78 c 4.22,-2.74 8.48,-5.16 12.76,-7.31 v 46.39 h -41.77 c 4.63,-15.94 14.77,-29.83 29.01,-39.08 z m 59.74,-18.94 c 6.56,0 13.1,0.68 19.61,2.01 v 56.01 h -39.23 v -56.01 c 6.51,-1.33 13.06,-2.01 19.62,-2.01 z m -91.56,85.38 h 44.59 v 26.84 h -44.59 z m 71.95,0 h 39.23 v 26.84 h -39.23 z m 66.59,-27.36 v -46.39 c 4.28,2.15 8.54,4.58 12.76,7.31 14.24,9.24 24.38,23.14 29.01,39.08 z M 101.05,334.39 c -29,0 -55.18,12.31 -73.59,31.98 l -0.1,-49.87 c 0,-50.49 41.08,-91.56 91.56,-91.56 50.49,0 91.56,41.08 91.56,91.56 v 41.38 c -9.13,7.39 -16.73,16.28 -22.56,26.22 C 170.36,354.38 138,334.39 101.05,334.39 Z m 19.78,199.42 c 7.25,3.32 15.31,5.18 23.79,5.18 26.85,0 49.43,-18.59 55.58,-43.57 h 23.99 v 13.74 c 0,29.66 -24.55,53.79 -54.73,53.79 -21.14,0 -39.52,-11.85 -48.63,-29.14 z m 214.11,98.07 -41.51,30.43 -41.51,-30.43 c -18.9,-13.85 -30.59,-35.64 -31.82,-58.91 19.13,-14.87 31.46,-37.93 31.46,-63.81 v -13.74 h 83.76 v 13.74 c 0,25.87 12.32,48.94 31.46,63.81 -1.25,23.27 -12.94,45.06 -31.84,58.91 z m 107.3,-92.89 c 8.48,0 16.54,-1.86 23.79,-5.18 -9.11,17.29 -27.49,29.14 -48.64,29.14 -30.18,0 -54.73,-24.13 -54.73,-53.79 v -13.74 h 23.99 c 6.16,24.98 28.74,43.57 55.59,43.57 z M 559.4,366.37 c -18.41,-19.67 -44.59,-31.98 -73.59,-31.98 -36.95,0 -69.31,19.98 -86.87,49.71 -5.83,-9.93 -13.44,-18.83 -22.56,-26.22 V 316.5 c 0,-50.49 41.08,-91.56 91.56,-91.56 50.48,0 91.56,41.08 91.56,91.53 z"
   id="path1" />
</svg>
